<svg xmlns="http://www.w3.org/2000/svg"  viewBox="0 0 16 16" width="50px" height="50px"><path fill="#ffb5d2" d="M7.5 0.5A7 7 0 1 0 7.5 14.5A7 7 0 1 0 7.5 0.5Z"/><path fill="#ea4c89" d="M7.5,1C11.1,1,14,3.9,14,7.5S11.1,14,7.5,14S1,11.1,1,7.5S3.9,1,7.5,1 M7.5,0C3.4,0,0,3.4,0,7.5 S3.4,15,7.5,15S15,11.6,15,7.5S11.6,0,7.5,0L7.5,0z"/><path fill="#ea4c89" d="M10.3,14.2c0-0.1-1.2-8.2-6-13.3L5,0.3c5,5.3,6.3,13.5,6.3,13.8L10.3,14.2z"/><path fill="#ea4c89" d="M1.6 7.2c-.9 0-1.5 0-1.6-.1l.1-1c.1 0 9.3.7 12.2-4.1l.9.5C10.7 6.7 4.6 7.2 1.6 7.2zM3.1 13.3l-.9-.4c0-.1 3.7-8.2 12.9-5.1l-.3.9C6.5 5.9 3.3 13 3.1 13.3z"/></svg>